<svg fill="none" viewBox="0 0 96 96" height="96" width="96" xmlns="http://www.w3.org/2000/svg">
<path fill="#292F32" d="M67.9502 63.6641L60.8359 81.4502L58.0508 80.3359L65.1641 62.5508L67.9502 63.6641ZM49.5 61.5H48C35.7668 61.5 25.055 68.4072 19.3105 78.7295L18.5811 80.04L15.96 78.5811L16.6895 77.2705C22.9215 66.072 34.5948 58.5 48 58.5H49.5V61.5ZM56.5605 67.0605L51.6211 72L56.5605 76.9395L54.4395 79.0605L47.3789 72L54.4395 64.9395L56.5605 67.0605ZM78.6211 72L71.5605 79.0605L69.4395 76.9395L74.3789 72L69.4395 67.0605L71.5605 64.9395L78.6211 72ZM48 15C57.9411 15 66 23.0589 66 33C66 42.9411 57.9411 51 48 51C38.0589 51 30 42.9411 30 33C30 23.0589 38.0589 15 48 15ZM48 18C39.7157 18 33 24.7157 33 33C33 41.2843 39.7157 48 48 48C56.2843 48 63 41.2843 63 33C63 24.7157 56.2843 18 48 18Z"></path>
</svg>