<svg fill="none" viewBox="0 0 96 96" height="96" width="96" xmlns="http://www.w3.org/2000/svg">
<mask height="22" width="14" y="37" x="48" maskUnits="userSpaceOnUse" style="mask-type:alpha" id="mask0_21_2699">
<path fill="#D9D9D9" d="M48 37H62V59H48V37Z"></path>
</mask>
<g mask="url(#mask0_21_2699)">
<path fill="#292F32" d="M59.9998 32.1113V51.0001H61.9998V54.0001H59.9998V59.0001H56.9998V54.0001H45.1719L59.9998 32.1113ZM56.9998 51.0001V41.8889L50.8277 51.0001H56.9998Z" clip-rule="evenodd" fill-rule="evenodd"></path>
</g>
<path fill="#292F32" d="M89.1211 51L87 53.1211L82.4912 48.6123C82.1645 67.3836 66.8493 82.5 48 82.5C33.6691 82.5 21.3824 73.7625 16.1699 61.3301L15.5898 59.9463L18.3564 58.7871L18.9365 60.1699C23.6981 71.527 34.9197 79.5 48 79.5C65.1868 79.5 79.1562 65.7356 79.4912 48.6289L75 53.1211L72.8789 51L81 42.8789L89.1211 51ZM39.8447 37C40.8733 37 41.8415 37.1441 42.7236 37.4658C43.5926 37.7766 44.3651 38.2297 45.002 38.8477C45.6375 39.448 46.1184 40.1632 46.4375 40.9785C46.7733 41.7928 46.9326 42.6637 46.9326 43.5723C46.9326 44.391 46.8068 45.1816 46.5449 45.9336C46.3129 46.6474 45.9805 47.3241 45.5537 47.9609C44.1637 50.1255 42.3174 51.9919 40.4609 53.6904C39.7037 54.3832 38.9647 55.0317 38.2451 55.6631C38.1166 55.7759 37.9886 55.8881 37.8613 56H46.5V59H34L32.9502 56.4297C34.0062 55.3938 35.2029 54.3413 36.376 53.3105C37.0833 52.689 37.7817 52.0748 38.4355 51.4766C40.2415 49.8242 41.8594 48.1642 43.0361 46.3281L43.0459 46.3135L43.0547 46.2998C43.3405 45.8751 43.5517 45.4408 43.6953 44.9951L43.7012 44.9766L43.708 44.958C43.8535 44.5441 43.9326 44.0855 43.9326 43.5723C43.9326 43.0141 43.8355 42.5339 43.6611 42.1143L43.6475 42.0811C43.4876 41.669 43.2528 41.3219 42.9365 41.0244L42.917 41.0049C42.6303 40.7254 42.2414 40.4787 41.71 40.2891L41.6982 40.2852C41.2087 40.1062 40.599 40 39.8447 40C39.1032 40 38.5061 40.0996 38.0293 40.2656C37.5198 40.4493 37.1219 40.6775 36.8125 40.9346C36.474 41.2158 36.1974 41.5333 35.9766 41.8906C35.7418 42.2822 35.5586 42.6815 35.4238 43.0889L34.9531 44.5127L32.1055 43.5713L32.5762 42.1465C32.7839 41.5186 33.0633 40.9159 33.4102 40.3389L33.418 40.3252C33.8144 39.6809 34.3093 39.114 34.8955 38.627C35.5118 38.115 36.2283 37.7241 37.0205 37.4395L37.0322 37.4355C37.8932 37.1342 38.8388 37 39.8447 37ZM48 13.5C62.3309 13.5 74.6176 22.2375 79.8301 34.6699L80.4102 36.0537L77.6436 37.2129L77.0635 35.8301C72.3019 24.473 61.0803 16.5 48 16.5C30.8135 16.5 16.8433 30.2639 16.5078 47.3701L21 42.8789L23.1211 45L15 53.1211L6.87891 45L9 42.8789L13.5078 47.3867C13.835 28.6159 29.151 13.5 48 13.5Z"></path>
</svg>