<svg fill="none" viewBox="0 0 96 96" height="96" width="96" xmlns="http://www.w3.org/2000/svg">
<path fill="#292F32" d="M54.5186 69.3937L53.6201 70.5949C48.6511 77.237 42.5564 82.6718 35.7705 86.7824L34.4883 87.5597L32.9336 84.9933L34.2168 84.2169C40.6805 80.3015 46.4845 75.125 51.2178 68.798L52.1162 67.5968L54.5186 69.3937ZM68.1309 60.2706L67.5146 61.6378C66.5512 63.7733 65.4763 65.8746 64.29 67.9337C60.8553 73.896 56.6811 79.1732 51.9531 83.714L50.8711 84.7531L48.793 82.589L49.875 81.5499C54.401 77.2031 58.3988 72.1494 61.6904 66.4357C62.8271 64.4626 63.8565 62.4497 64.7793 60.4044L65.3965 59.0372L68.1309 60.2706ZM76.624 41.1066C76.8339 41.8163 77.0214 42.5332 77.1855 43.256C78.7874 50.3089 78.1895 57.9268 74.9873 65.0245C73.9126 67.4067 72.7143 69.7497 71.3926 72.0441C69.5895 75.1739 67.6032 78.1343 65.4561 80.9201L64.541 82.1085L62.1641 80.2775L63.0801 79.089C65.1458 76.4089 67.057 73.5593 68.793 70.546C70.0652 68.3376 71.2188 66.0833 72.2529 63.7911C75.1739 57.3167 75.7214 50.3756 74.2656 43.9435L73.7344 41.9103L76.624 41.1066ZM34.8906 45.8312C37.2732 40.5416 43.4819 38.1859 48.7598 40.5812C54.0346 42.9753 56.3714 49.2038 53.9902 54.4904C53.2838 56.0588 52.4945 57.6044 51.6221 59.1212C45.7175 69.3873 36.8453 76.8798 26.7334 81.129L25.3506 81.7101L24.1875 78.9445L25.5713 78.3634C35.098 74.3601 43.4553 67.303 49.0215 57.6251C49.8445 56.1941 50.5889 54.7364 51.2549 53.2579C52.9596 49.4727 51.2828 45.0215 47.5205 43.3136C43.7609 41.6072 39.3297 43.2811 37.626 47.0636L37.0107 48.4308L34.2754 47.1993L34.8906 45.8312ZM43.6514 49.4913C43.9922 48.7366 44.8798 48.4009 45.6348 48.7413C46.3899 49.082 46.7264 49.9706 46.3857 50.7257C45.7563 52.1209 45.0521 53.4974 44.2725 54.8507C37.6141 66.4087 26.734 74.0056 14.7139 76.8126C13.9072 77.001 13.1005 76.5001 12.9121 75.6935C12.7237 74.8868 13.2246 74.0801 14.0312 73.8917C25.2752 71.2661 35.4452 64.1638 41.6729 53.3536C42.4031 52.0861 43.0625 50.7967 43.6514 49.4913ZM35.375 51.3243L34.5205 52.5577C29.9435 59.1666 23.3701 63.7004 16.0908 65.8117L14.6504 66.2296L13.8154 63.3478L15.2559 62.9308C21.8948 61.0052 27.883 56.8734 32.0547 50.8497L32.9082 49.6163L35.375 51.3243ZM43.5371 32.171C46.173 32.1426 48.8558 32.6763 51.4111 33.8341C59.4539 37.4786 63.6613 46.1289 62.0322 54.4454L62.0918 54.462L61.6963 55.8693C61.6354 56.0876 61.5693 56.3052 61.5 56.5226C61.4888 56.5578 61.4773 56.5929 61.4658 56.6281C61.4159 56.7817 61.3637 56.935 61.3096 57.088C61.2904 57.1422 61.2726 57.197 61.2529 57.2511C61.1823 57.4449 61.1067 57.6375 61.0293 57.8302C61.0101 57.8778 60.9903 57.9252 60.9707 57.9728C60.8982 58.1489 60.8244 58.3251 60.7461 58.5001C60.7373 58.5198 60.7296 58.5401 60.7207 58.5597C59.8585 60.4707 58.896 62.3522 57.833 64.1974L57.084 65.4972L54.4844 63.9992L54.7705 63.5031L55.2334 62.6993C55.7929 61.7281 56.3223 60.746 56.8232 59.755C56.9656 59.4734 57.1045 59.1905 57.2422 58.9074C57.4975 58.3822 57.7462 57.8553 57.9854 57.3253C58.0784 57.1191 58.1656 56.9113 58.249 56.7033C58.3774 56.3832 58.4947 56.0616 58.6006 55.7384C58.6213 55.6753 58.6413 55.6121 58.6611 55.549C58.7087 55.3975 58.7552 55.2459 58.7979 55.0939L58.8174 55.0236C60.8373 47.7005 57.293 39.7939 50.1729 36.5675C48.0244 35.594 45.7763 35.1472 43.5693 35.171L42.0693 35.1876L42.0371 32.1876L43.5371 32.171ZM56.2783 10.9406C57.8457 11.4375 59.4006 12.0316 60.9346 12.7267C79.847 21.2968 89.2941 42.2293 84.0771 61.6798L83.6885 63.1281L80.791 62.3507L81.1797 60.9025C86.0233 42.8438 77.246 23.4129 59.6963 15.4601C58.2703 14.8139 56.8259 14.2612 55.3711 13.7999L53.9414 13.3468L54.8477 10.4865L56.2783 10.9406ZM37.5645 36.3644L36.2471 37.0812C33.3533 38.6565 30.9305 41.1555 29.4678 44.3976C29.0711 45.2769 28.6251 46.1485 28.1289 47.0099C24.4939 53.3197 18.8788 57.7506 12.4922 59.9699L11.0752 60.462L10.0908 57.6281L11.5078 57.1359C17.2354 55.1457 22.267 51.1773 25.5303 45.5128C25.9771 44.7372 26.3772 43.9527 26.7334 43.1632C28.474 39.3054 31.3634 36.324 34.8125 34.4464L36.1299 33.7296L37.5645 36.3644ZM60.8574 31.1134C67.5908 36.9741 70.8927 45.9593 69.5391 54.8117L69.3125 56.2941L66.3467 55.8409L66.5732 54.3585C67.7715 46.5226 64.8458 38.5619 58.8877 33.3761L57.7559 32.3917L59.7256 30.129L60.8574 31.1134ZM28.7773 29.4122C36.0748 24.3154 45.7882 23.0854 54.4834 27.0255L55.8496 27.6447L54.6113 30.3771L53.2451 29.7579C44.3822 25.7418 34.3202 27.795 27.709 34.1622C27.3898 34.4696 27.0789 34.7871 26.7764 35.1144C25.2666 36.7476 23.9704 38.6261 22.9521 40.7257C22.8572 40.9216 22.7639 41.1197 22.6738 41.3195L22.0576 42.6867L22.0088 42.6642C21.8998 42.8676 21.7886 43.072 21.6719 43.2745C19.6185 46.8388 16.7208 49.5985 13.3545 51.4435L12.0391 52.1642L10.5977 49.5333L11.9131 48.8126C14.8052 47.2275 17.2982 44.8561 19.0723 41.7765C19.3959 41.2147 19.6845 40.6502 19.9395 40.0851C20.2418 39.415 20.5698 38.7645 20.9199 38.1329C20.934 38.1076 20.9478 38.0821 20.9619 38.0568C21.0618 37.878 21.164 37.7011 21.2676 37.5255C21.2961 37.4772 21.3247 37.4291 21.3535 37.381C21.4466 37.2255 21.5408 37.0711 21.6367 36.9181C21.6641 36.8745 21.6912 36.8307 21.7188 36.7872C21.813 36.6388 21.9089 36.4918 22.0059 36.3458C22.0391 36.2957 22.0719 36.2453 22.1055 36.1954C22.2108 36.0392 22.3185 35.885 22.4268 35.7316C22.4537 35.6934 22.4807 35.6553 22.5078 35.6173C22.6157 35.4661 22.7252 35.3165 22.8359 35.1681C22.8531 35.1451 22.8695 35.1217 22.8867 35.0988C22.892 35.0917 22.8971 35.0843 22.9023 35.0773C23.2309 34.6412 23.5724 34.218 23.9248 33.8068C23.947 33.7808 23.9699 33.7555 23.9922 33.7296C24.1405 33.558 24.2901 33.388 24.4424 33.2208C24.4785 33.1811 24.5144 33.1412 24.5508 33.1017C24.903 32.7197 25.2655 32.3494 25.6377 31.9913C25.6814 31.9493 25.7256 31.908 25.7695 31.8663C25.9198 31.7238 26.0713 31.5831 26.2246 31.4445C26.2638 31.409 26.3034 31.3742 26.3428 31.339C26.7002 31.0198 27.0646 30.71 27.4375 30.4122L27.5723 30.3068L28.75 29.3781L28.7773 29.4122ZM14.0117 33.674C22.7132 18.5277 41.6362 12.1843 57.8613 19.5363C61.3329 21.1094 64.4164 23.1912 67.0645 25.6525L67.0889 25.629L68.1416 26.6974C68.1514 26.7074 68.1611 26.7177 68.1709 26.7277C68.2385 26.7965 68.3051 26.8663 68.3721 26.9357C68.468 27.0349 68.5636 27.1342 68.6582 27.2345C68.705 27.2841 68.7514 27.3341 68.7979 27.3839C68.9255 27.5209 69.0526 27.6582 69.1777 27.797C69.1984 27.82 69.2186 27.8433 69.2393 27.8663C69.3688 28.0109 69.4971 28.1564 69.624 28.3029C69.6762 28.3631 69.7276 28.424 69.7793 28.4845C69.8848 28.608 69.9901 28.7317 70.0938 28.8566C70.1341 28.9052 70.1738 28.9543 70.2139 29.0031C70.3207 29.1332 70.4265 29.264 70.5312 29.3956C70.585 29.4631 70.6382 29.5309 70.6914 29.5988C70.7746 29.7049 70.8576 29.8111 70.9395 29.9181C70.9931 29.9882 71.0465 30.0585 71.0996 30.129C71.1979 30.2596 71.2953 30.3908 71.3916 30.5226C71.4344 30.5811 71.4772 30.6396 71.5195 30.6984C71.6187 30.8359 71.7164 30.9745 71.8135 31.1134C71.8546 31.1723 71.8958 31.2311 71.9365 31.2902C72.0198 31.411 72.1019 31.5326 72.1836 31.6544C72.2309 31.725 72.2784 31.7954 72.3252 31.8663C72.392 31.9675 72.4578 32.0692 72.5234 32.171C72.5859 32.2679 72.6485 32.3646 72.71 32.462C72.7774 32.5689 72.843 32.6768 72.9092 32.7843C72.9729 32.8877 73.0371 32.9908 73.0996 33.0949C73.1662 33.2057 73.2315 33.3173 73.2969 33.4288C73.3448 33.5105 73.3932 33.5919 73.4404 33.674C73.7909 34.2836 74.1234 34.9034 74.4355 35.5324L75.1025 36.8751L72.415 38.2091L71.748 36.8663C71.6531 36.675 71.5559 36.4845 71.457 36.2951C71.3025 35.9989 71.1425 35.7055 70.9785 35.4142C67.8218 29.8084 62.9246 25.1238 56.624 22.2687C41.8232 15.5619 24.5542 21.3459 16.6133 35.1681L15.8662 36.4689L13.2646 34.9747L14.0117 33.674ZM15.3594 20.131C24.1948 11.9475 36.2562 7.91343 48.3174 9.25208L49.8086 9.4181L49.4775 12.3995L47.9863 12.2345C36.7979 10.9927 25.5999 14.7358 17.3984 22.3322L16.2979 23.3517L14.2598 21.1505L15.3594 20.131Z"></path>
</svg>