<svg fill="none" viewBox="0 0 96 96" height="96" width="96" xmlns="http://www.w3.org/2000/svg">
<path fill="#292F32" d="M86.3984 61.2412L48 87.3125L9.60254 61.2412L11.2871 58.7588L48 83.6865L84.7129 58.7588L86.3984 61.2412ZM86.3984 47.7412L48 73.8125L9.60254 47.7412L11.2871 45.2588L48 70.1865L84.7129 45.2588L86.3984 47.7412ZM87 34.5L48 60L9 34.5L48 9L87 34.5ZM15.1582 34.5L48 55.9736L80.8418 34.5L48 13.0264L15.1582 34.5ZM56.0391 34.1006C60.4791 37.0037 60.4791 41.7102 56.0391 44.6133C51.599 47.5163 44.401 47.5163 39.9609 44.6133L26.9609 36.1133L30.0391 34.1006L43.0391 42.6006C45.7787 44.3919 50.2213 44.3919 52.9609 42.6006C55.7003 40.8093 55.7003 37.9045 52.9609 36.1133L39.9609 27.6133L43.0391 25.6006L56.0391 34.1006ZM70.0654 34.8359L66.9873 36.8486L51.5918 26.7832L54.6709 24.7695L70.0654 34.8359ZM46.8271 21.8457C47.8797 21.1576 49.586 21.1577 50.6387 21.8457C51.6913 22.534 51.6913 23.6496 50.6387 24.3379C49.586 25.0261 47.8798 25.0262 46.8271 24.3379C45.7746 23.6496 45.7745 22.5339 46.8271 21.8457Z"></path>
</svg>