<svg fill="none" viewBox="0 0 96 96" height="96" width="96" xmlns="http://www.w3.org/2000/svg">
<path fill="#292F32" d="M48 31.5C38.8873 31.5 31.5 38.8873 31.5 48C31.5 57.1127 38.8873 64.5 48 64.5C57.1127 64.5 64.5 57.1127 64.5 48C64.5 38.8873 57.1127 31.5 48 31.5ZM28.5 48C28.5 37.2304 37.2304 28.5 48 28.5C58.7696 28.5 67.5 37.2304 67.5 48C67.5 58.7696 58.7696 67.5 48 67.5C37.2304 67.5 28.5 58.7696 28.5 48Z" clip-rule="evenodd" fill-rule="evenodd"></path>
<path fill="#292F32" d="M46 24V10H49V24H46Z" clip-rule="evenodd" fill-rule="evenodd"></path>
<path fill="#292F32" d="M46 86V72H49V86H46Z" clip-rule="evenodd" fill-rule="evenodd"></path>
<path fill="#292F32" d="M63.9101 29.9688L73.4561 20.4229L75.5774 22.5442L66.0314 32.0901L63.9101 29.9688Z" clip-rule="evenodd" fill-rule="evenodd"></path>
<path fill="#292F32" d="M20.4228 73.4561L29.9688 63.9102L32.0901 66.0315L22.5441 75.5774L20.4228 73.4561Z" clip-rule="evenodd" fill-rule="evenodd"></path>
<path fill="#292F32" d="M72 46L86 46L86 49L72 49L72 46Z" clip-rule="evenodd" fill-rule="evenodd"></path>
<path fill="#292F32" d="M10 46L24 46L24 49L10 49L10 46Z" clip-rule="evenodd" fill-rule="evenodd"></path>
<path fill="#292F32" d="M66.0312 63.9101L75.5771 73.4561L73.4558 75.5774L63.9099 66.0314L66.0312 63.9101Z" clip-rule="evenodd" fill-rule="evenodd"></path>
<path fill="#292F32" d="M22.5439 20.4228L32.0898 29.9688L29.9685 32.0901L20.4226 22.5441L22.5439 20.4228Z" clip-rule="evenodd" fill-rule="evenodd"></path>
</svg>